<svg xmlns="http://www.w3.org/2000/svg" xmlns:xlink="http://www.w3.org/1999/xlink" width="500" zoomAndPan="magnify" viewBox="0 0 375 374.999991" height="500" preserveAspectRatio="xMidYMid meet" version="1.2"><defs><clipPath id="1b2e065499"><path d="M 187.5 0 C 83.945312 0 0 83.945312 0 187.5 C 0 291.054688 83.945312 375 187.5 375 C 291.054688 375 375 291.054688 375 187.5 C 375 83.945312 291.054688 0 187.5 0 Z M 187.5 0 "/></clipPath><clipPath id="3e49aed927"><path d="M 71.351562 62.683594 L 303.816406 62.683594 L 303.816406 131.722656 L 71.351562 131.722656 Z M 71.351562 62.683594 "/></clipPath><clipPath id="b8917a1a78"><path d="M 89.351562 62.683594 L 285.648438 62.683594 C 295.589844 62.683594 303.648438 70.742188 303.648438 80.683594 L 303.648438 113.722656 C 303.648438 123.664062 295.589844 131.722656 285.648438 131.722656 L 89.351562 131.722656 C 79.410156 131.722656 71.351562 123.664062 71.351562 113.722656 L 71.351562 80.683594 C 71.351562 70.742188 79.410156 62.683594 89.351562 62.683594 Z M 89.351562 62.683594 "/></clipPath></defs><g id="1c991a4f22"><g clip-rule="nonzero" clip-path="url(#1b2e065499)"><rect x="0" width="375" y="0" height="374.999991" style="fill:#fab387;fill-opacity:1;stroke:none;"/><path style="fill:none;stroke-width:32;stroke-linecap:butt;stroke-linejoin:miter;stroke:#000000;stroke-opacity:1;stroke-miterlimit:4;" d="M 249.999994 0 C 111.927078 0 -0.000006 111.927084 -0.000006 250 C -0.000006 388.072917 111.927078 500.000001 249.999994 500.000001 C 388.072911 500.000001 499.999995 388.072917 499.999995 250 C 499.999995 111.927084 388.072911 0 249.999994 0 Z M 249.999994 0 " transform="matrix(0.75,0,0,0.75,0.0000045,0)"/></g><path style=" stroke:none;fill-rule:nonzero;fill:#1e1e2e;fill-opacity:1;" d="M 237.335938 69.664062 L 168.660156 69.664062 C 164.5625 69.664062 160.898438 72.230469 159.484375 76.082031 L 117.015625 191.867188 C 114.675781 198.25 119.394531 205.011719 126.214844 205.011719 L 175.042969 205.011719 C 176.628906 205.011719 178.101562 205.785156 179.007812 207.070312 C 179.914062 208.351562 180.121094 210.015625 179.59375 211.488281 L 131.425781 333.050781 C 129.214844 338.621094 136.75 342.796875 140.300781 337.980469 C 172.890625 293.851562 230.878906 215.167969 255.425781 181.878906 C 260.183594 175.421875 255.539062 166.339844 247.511719 166.339844 L 208.878906 166.339844 C 207.179688 166.339844 205.59375 165.433594 204.726562 163.960938 C 203.855469 162.488281 203.820312 160.675781 204.648438 159.183594 L 245.910156 84.144531 C 249.496094 77.628906 244.777344 69.664062 237.335938 69.664062 "/><g clip-rule="nonzero" clip-path="url(#3e49aed927)"><g clip-rule="nonzero" clip-path="url(#b8917a1a78)"><path style=" stroke:none;fill-rule:nonzero;fill:#1e1e2e;fill-opacity:1;" d="M 71.351562 62.683594 L 303.546875 62.683594 L 303.546875 131.722656 L 71.351562 131.722656 Z M 71.351562 62.683594 "/></g></g></g></svg>
