<svg xmlns="http://www.w3.org/2000/svg" xmlns:xlink="http://www.w3.org/1999/xlink" width="500" zoomAndPan="magnify" viewBox="0 0 375 374.999991" height="500" preserveAspectRatio="xMidYMid meet" version="1.2"><defs><clipPath id="3521a9d043"><path d="M 71.351562 62.683594 L 303.816406 62.683594 L 303.816406 131.722656 L 71.351562 131.722656 Z M 71.351562 62.683594 "/></clipPath><clipPath id="9f196c34b3"><path d="M 97.601562 62.683594 L 277.398438 62.683594 C 291.894531 62.683594 303.648438 74.4375 303.648438 88.933594 L 303.648438 105.472656 C 303.648438 119.96875 291.894531 131.722656 277.398438 131.722656 L 97.601562 131.722656 C 83.105469 131.722656 71.351562 119.96875 71.351562 105.472656 L 71.351562 88.933594 C 71.351562 74.4375 83.105469 62.683594 97.601562 62.683594 Z M 97.601562 62.683594 "/></clipPath></defs><g id="403df86b03"><rect x="0" width="375" y="0" height="374.999991" style="fill:#ffffff;fill-opacity:1;stroke:none;"/><rect x="0" width="375" y="0" height="374.999991" style="fill:#fab387;fill-opacity:1;stroke:none;"/><path style=" stroke:none;fill-rule:nonzero;fill:#1e1e2e;fill-opacity:1;" d="M 237.335938 69.664062 L 168.660156 69.664062 C 164.5625 69.664062 160.898438 72.230469 159.484375 76.082031 L 117.015625 191.867188 C 114.675781 198.25 119.394531 205.011719 126.214844 205.011719 L 175.042969 205.011719 C 176.628906 205.011719 178.101562 205.785156 179.007812 207.070312 C 179.914062 208.351562 180.121094 210.015625 179.59375 211.488281 L 131.425781 333.050781 C 129.214844 338.621094 136.75 342.796875 140.300781 337.980469 C 172.890625 293.851562 230.878906 215.167969 255.425781 181.878906 C 260.183594 175.421875 255.539062 166.339844 247.511719 166.339844 L 208.878906 166.339844 C 207.179688 166.339844 205.59375 165.433594 204.726562 163.960938 C 203.855469 162.488281 203.820312 160.675781 204.648438 159.183594 L 245.910156 84.144531 C 249.496094 77.628906 244.777344 69.664062 237.335938 69.664062 "/><g clip-rule="nonzero" clip-path="url(#3521a9d043)"><g clip-rule="nonzero" clip-path="url(#9f196c34b3)"><path style=" stroke:none;fill-rule:nonzero;fill:#1e1e2e;fill-opacity:1;" d="M 71.351562 62.683594 L 303.546875 62.683594 L 303.546875 131.722656 L 71.351562 131.722656 Z M 71.351562 62.683594 "/></g></g></g></svg>
